<?xml version="1.0" encoding="utf-8"?>
<!-- Generator: Adobe Illustrator 22.1.0, SVG Export Plug-In . SVG Version: 6.00 Build 0)  -->
<svg version="1.1" id="Layer_1" xmlns="http://www.w3.org/2000/svg" xmlns:xlink="http://www.w3.org/1999/xlink" x="0px" y="0px"
	 viewBox="0 0 370.5 219" style="enable-background:new 0 0 370.5 219;" xml:space="preserve">
<style type="text/css">
	.st0{fill:#414042;}
	.st1{fill:#6D6E71;}
	.st2{fill:#BE1E2D;}
</style>
<g>
	<path class="st0" d="M250.2,171.1v-52.7h-18.1v-4.9h41.6v4.9h-18.1v52.7H250.2z"/>
	<path class="st0" d="M306.3,146.6v4.9c0,12.1-6.9,20.3-18.4,20.3c-11.5,0-18.4-8.2-18.4-20.3v-4.9c0-12.1,6.9-20.3,18.4-20.3
		C299.3,126.3,306.3,134.6,306.3,146.6z M274.7,146.9v4.3c0,10,5.1,15.9,13.1,15.9c8,0,13.1-5.8,13.1-15.9v-4.3
		c0-10-5.1-15.9-13.1-15.9C279.8,131,274.7,136.8,274.7,146.9z"/>
	<path class="st0" d="M324.9,112.1c8.5,0,16.2,4.7,16.2,14c0,6.7-3.9,10.4-8.3,13.9c-5.2,4.1-6.6,6.1-6.6,10.6v3.1h-5.3v-4
		c0-5.6,3.3-9,8.1-12.8c4.3-3.4,6.7-5.8,6.7-10.5c0-6.6-5.2-9.6-11-9.6c-8.1,0-11.3,5.5-11.5,10.8H308
		C308.2,116.8,316.1,112.1,324.9,112.1z M323.7,163.7c2.2,0,4.1,1.9,4.1,4.1c0,2.2-1.9,4.1-4.1,4.1c-2.2,0-4.1-1.8-4.1-4.1
		C319.6,165.6,321.4,163.7,323.7,163.7z"/>
</g>
<path class="st1" d="M146.2,102.7l-0.2,0c-23.4-0.1-25.3-25-25.3-25.2l0-0.2l3.8-43c0.1-1.1,1.1-1.9,2.2-1.8
	c1.1,0.1,1.9,1.1,1.8,2.2l-3.8,42.7c0.2,2,2.3,21.3,21.4,21.4c19.1-0.1,21.2-19.3,21.4-21.4l-3.8-42.7c-0.1-1.1,0.7-2.1,1.8-2.2
	c1.1-0.1,2.1,0.7,2.2,1.8l3.8,43l0,0.2C171.5,77.7,169.6,102.6,146.2,102.7L146.2,102.7z"/>
<path class="st1" d="M136,83.7c-1.1,0-2-0.9-2-2V34.5c0-1.1,0.9-2,2-2s2,0.9,2,2v47.2C138,82.8,137.1,83.7,136,83.7z"/>
<path class="st1" d="M146.2,83.7c-1.1,0-2-0.9-2-2V34.5c0-1.1,0.9-2,2-2s2,0.9,2,2v47.2C148.2,82.8,147.3,83.7,146.2,83.7z"/>
<path class="st1" d="M146.2,131.2c-1.1,0-2-0.9-2-2v-28.1c0-1.1,0.9-2,2-2s2,0.9,2,2v28.1C148.2,130.3,147.3,131.2,146.2,131.2z"/>
<path class="st1" d="M205.1,131.2c-1.1,0-2-0.9-2-2v-28.1c0-1.1,0.9-2,2-2s2,0.9,2,2v28.1C207.1,130.3,206.2,131.2,205.1,131.2z"/>
<path class="st1" d="M156.5,83.7c-1.1,0-2-0.9-2-2V34.5c0-1.1,0.9-2,2-2s2,0.9,2,2v47.2C158.5,82.8,157.6,83.7,156.5,83.7z"/>
<path class="st1" d="M205.1,103.1c-13.5,0-27.9-6.9-27.9-26.2c0-19.4,13.4-44.4,27.6-44.4c6.8,0,13.3,5.3,18.5,15
	c4.5,8.5,7.1,19,7.1,28.2C230.4,92.8,220.9,103.1,205.1,103.1z M204.8,36.5c-5.2,0-11.1,5-16,13.5c-4.7,8.3-7.7,18.6-7.7,26.9
	c0,6.7,2.3,22.2,23.9,22.2c8,0,21.3-3,21.3-23.3C226.4,58.5,216.2,36.5,204.8,36.5z"/>
<g>
	<path class="st2" d="M97.1,134.8c-0.4-0.2-0.8-0.3-1-0.3c-0.5,0-0.9,0.5-1.2,1.5c-1.6,5-3.4,9.5-5.4,13.6c-2,4.1-4.2,7.9-6.7,11.2
		c-5.4,7.3-10.6,11-15.7,11c-4.2,0-7.5-1.9-9.7-5.8c-0.6-1-1.1-1.6-1.5-1.6c-0.3,0-0.5,0.2-0.8,0.6c-3.5,4.9-7.8,7.4-13,7.4
		c-0.4,0-0.8,0-1.2,0c-0.4,0-0.8-0.1-1.2-0.1c-5.9-0.8-8.9-5.7-8.9-14.9c0-5.8,1-11.9,2.9-18.3c1.3-4.4,3.2-8.9,5.7-13.5
		c2.1-4,3.8-6.7,5.2-8.1c1.7-1.7,3.3-2.5,4.9-2.5c0.6,0,1,0,1.3,0.1c2.8,0.5,4.2,1.1,4.2,1.9c0,0.3-0.1,0.7-0.3,1.1
		c-0.8,1.3-1.6,2.6-2.4,3.9c-0.8,1.3-1.6,2.6-2.4,3.9c-2.5,4.3-4.4,8.3-5.7,12.2c-2.9,8.8-4.3,15.6-4.3,20.3c0,4.4,1.3,6.6,3.8,6.6
		c3.1,0,6.4-2.5,10.1-7.4c0.3-0.3,0.5-0.8,0.5-1.4c0.1-0.6,0.1-1.3,0.1-2.2c0-0.8,0.1-1.8,0.1-2.9c0.1-1.1,0.2-2.3,0.5-3.7
		c0.5-2.7,1.2-4.9,2-6.4c3.6-6.8,7.2-10.1,10.7-9.9c2.7,0.3,4.1,1.9,4.1,4.9c0,1.3-0.3,2.9-1,4.7c-1.5,3.9-3.6,7.1-6.4,9.4
		c-1.3,1.1-1.9,2.2-1.8,3.3c0.1,2.3,0.3,4.1,0.7,5.3c0.9,2.5,2.5,3.9,4.8,4.3c3.3,0.6,7.6-3.8,12.8-13.1c2.1-3.9,3.9-7.3,5.2-10.3
		c1.3-3,2.2-5.6,2.7-7.8c0.2-1-0.1-2.2-1.1-3.6c-0.3-0.5-0.6-0.9-0.9-1.2c-0.2-0.3-0.4-0.6-0.5-0.8c-0.2-0.4-0.4-0.9-0.6-1.4
		c-0.1-0.5-0.3-1.2-0.4-1.9c-0.1-0.3-0.1-0.6-0.1-0.8c0-0.3,0-0.5,0-0.8c0-3.8,1.5-6.1,4.6-6.9c0.6-0.1,1-0.2,1.3-0.2
		c1.5,0,2.8,0.6,3.9,1.8c1.1,1.2,1.7,2.5,1.8,4c0.1,0.6,0.1,1.4,0.1,2.4c0,0.9-0.1,2-0.2,3.3c-0.1,1.6,0.1,2.5,0.8,2.9
		c0.4,0.2,1.2,0.6,2.3,1.1c0.5,0.3,0.8,0.7,0.8,1.2c0,0.3-0.1,0.6-0.2,1.1c-0.1,0.4-0.3,0.9-0.5,1.3c-0.2,0.4-0.5,0.8-0.8,1
		c-0.3,0.3-0.6,0.4-1,0.4C97.9,135.1,97.6,135,97.1,134.8z"/>
	<path class="st2" d="M140.4,166.7c-2.4,2.4-5.3,3.9-8.5,4.4c-0.8,0.1-1.5,0.2-2.3,0.3s-1.6,0.1-2.5,0.1c-4.3,0-7.5-0.6-9.5-1.8
		c-2-1.2-3-2.7-3-4.5c0-0.2,0-0.5,0-0.9c0-0.4,0.1-0.8,0.1-1.3c0.3-1.6,1.2-4.8,2.9-9.5c0.5-1.3,0.9-2.5,1.3-3.8
		c0.4-1.3,0.9-2.5,1.3-3.8c0.1-0.2,0.1-0.4,0.1-0.8c0-0.7-0.3-1-0.9-1c-0.6,0-1.3,0.3-2.3,0.9c-1.8,1.1-4.7,4.6-8.7,10.6
		c-3.4,5.1-5.6,9.4-6.8,13.1c-0.5,1.5-1.3,2.3-2.4,2.5c-1.7,0.3-2.9,0.4-3.4,0.3c-1.4-0.3-2-1.4-1.7-3c0.6-2.9,1.5-6.9,2.9-12
		c1.4-5.1,3.1-11.2,5.3-18.5c3.9-12.5,6.2-19.5,6.8-21.1c0.6-1.3,1.5-2.2,2.5-2.5c0.6-0.2,1.6-0.3,3.1-0.3c1.6,0.1,2.5,0.3,2.9,0.6
		c0.9,0.7,1.3,1.5,1.3,2.3c0,0.6-0.2,1.4-0.5,2.3c-3.4,8.8-6,15.5-7.9,20.2c-1.8,4.7-2.9,7.4-3.2,8.2c-0.4,0.9-0.3,1.4,0.3,1.4
		c0.2,0,0.3-0.1,0.3-0.3c0.1-0.2,0.4-0.7,0.9-1.3c0.5-0.6,1.2-1.5,2-2.5c1-1.2,1.9-2.2,2.7-3.2c0.8-1,1.6-1.7,2.3-2.4
		c2.1-2.1,4.6-3.1,7.5-3.1c1,0,1.8,0.1,2.5,0.3c2.5,0.8,3.8,2.7,3.8,5.5c0,0.6-0.1,1.2-0.3,1.7c-0.8,2-1.6,4.4-2.5,7.1
		c-0.9,2.7-1.9,5.8-3.1,9.3c-0.4,1.2-0.6,2.2-0.6,3.2c0,1.3,0.6,2.2,1.9,2.7c1.3,0.5,3.1,0.8,5.4,0.8c1.1,0,2.5-0.5,4.2-1.6
		c1-0.6,1.9-1.2,2.7-1.9c0.8-0.7,1.5-1.4,2.1-2.2c0.3-0.3,0.5-0.3,0.7,0.3c0.4,1,0.5,2.1,0.4,3.4
		C140.9,165.8,140.7,166.4,140.4,166.7z"/>
	<path class="st2" d="M173.9,166.7c-2.4,2.4-5.3,3.9-8.5,4.5c-2.5,0.5-5.4,0.8-8.6,0.8c-6.6,0-11.3-1.1-14-3.3
		c-3.1-2.6-4.7-6.2-4.7-10.7c0-4,1.2-8.3,3.5-12.8c1.7-3.3,4-5.7,7-7.4c2.5-1.4,5.1-2.1,7.7-2.1c1.5,0,2.7,0.2,3.6,0.6
		c3.3,1.4,5,4.2,5,8.4c0,0.9-0.1,1.9-0.3,2.9c-0.5,2.8-2.5,6.2-6.2,10.1c-1.2,1.3-2.3,2.4-3.4,3.4c-1.1,1-2.2,1.9-3.3,2.7
		c-0.3,0.3-0.4,0.5-0.4,0.5c0,0.2,0.3,0.5,1,0.9c2.5,1.4,6.6,1.9,12,1.4c3.6-0.3,6.6-2.2,9.1-5.5c0.3-0.3,0.5-0.3,0.7,0.3
		c0.4,1,0.5,2.1,0.4,3.4C174.3,165.8,174.1,166.4,173.9,166.7z M153,144c-1.4,1.1-2.5,2.5-3.3,4.2c-1.8,3.9-2.8,7.1-2.8,9.7
		c0,1.8,0.6,2.4,1.7,1.6c3.9-2.4,6.8-5.4,8.8-8.8c1.3-2.1,1.9-3.9,1.9-5.3c0-2-0.8-2.9-2.5-2.9C155.7,142.4,154.4,143,153,144z"/>
	<path class="st2" d="M209.7,166.7c-2.5,2.5-5.4,4-8.5,4.4c-5.3,0.9-9.1,0.7-11.7-0.4c-2.5-1.2-3.8-2.9-3.8-5.2
		c0-0.6,0.1-1.3,0.3-2.1c0.3-1.3,0.6-2.7,1.1-4.2c0.4-1.4,1-3,1.6-4.7c0.9-2.6,1.6-4.3,2.1-5c0.4-0.7,0.4-1.5,0-2.3
		c-0.4-0.8-1.6-1.7-3.5-2.8c-0.5-0.3-0.8,0-1.1,0.8c-1.4,3.6-2.5,6.3-3.3,8.1c-0.8,1.8-1.2,2.8-1.2,2.9c-2.4,4.8-5.5,8.7-9.1,11.7
		c-2.3,1.7-4.6,2.8-7.2,3.2c-0.3,0.1-0.6-0.1-0.8-0.5c-0.4-0.9-0.6-1.8-0.6-2.9c0-0.5,0.1-0.8,0.3-0.9c2.1-0.5,3.8-1.2,5-2.1
		c0.9-0.7,2.2-2,3.9-3.9c1.2-1.4,2.6-3.9,4.3-7.5c1.9-3.9,3.4-7.7,4.4-11.4c0.1-0.2,0.1-0.4,0.1-0.5c0-0.1,0-0.2,0-0.2
		c-0.1-0.3-0.3-0.9-0.6-1.6c-0.3-0.7-0.5-1.4-0.5-2.2c0-0.2,0-0.5,0-0.8c0-0.3,0.1-0.6,0.1-0.9c0.6-3.3,2.3-4.9,4.9-4.9
		c2.3,0.1,3.5,1.5,3.7,4.2c0.1,0.5-0.1,1.3-0.4,2.3c-0.1,0.3-0.1,0.6,0,0.8c0.1,0.2,0.4,0.4,0.8,0.6c0.4,0.2,1,0.5,1.6,0.8
		c0.7,0.3,1.6,0.8,2.6,1.3c2.1,1.2,3.5,2,4.2,2.6c1.2,1,1.6,2.2,1.4,3.7c-0.2,0.9-1.2,3.6-3,8.1c-0.9,2.2-1.6,4-2.1,5.3
		c-0.5,1.4-0.8,2.3-0.9,2.8c-0.3,1.7,0.3,2.7,2,3c0.7,0.2,2.1,0.2,4.2,0.1c1.1-0.1,2.5-0.6,4.2-1.6c2.1-1.2,3.7-2.5,4.8-4.1
		c0.3-0.3,0.5-0.3,0.7,0.3c0.4,1,0.5,2.1,0.4,3.4C210.2,165.8,210,166.4,209.7,166.7z"/>
	<path class="st2" d="M243.2,166.7c-2.4,2.4-5.3,3.9-8.5,4.5c-2.5,0.5-5.4,0.8-8.6,0.8c-6.6,0-11.3-1.1-14-3.3
		c-3.1-2.6-4.7-6.2-4.7-10.7c0-4,1.2-8.3,3.5-12.8c1.7-3.3,4-5.7,7-7.4c2.5-1.4,5.1-2.1,7.7-2.1c1.5,0,2.7,0.2,3.6,0.6
		c3.3,1.4,5,4.2,5,8.4c0,0.9-0.1,1.9-0.3,2.9c-0.5,2.8-2.5,6.2-6.2,10.1c-1.2,1.3-2.3,2.4-3.4,3.4c-1.1,1-2.2,1.9-3.3,2.7
		c-0.3,0.3-0.4,0.5-0.4,0.5c0,0.2,0.3,0.5,1,0.9c2.5,1.4,6.6,1.9,12,1.4c3.6-0.3,6.6-2.2,9.1-5.5c0.3-0.3,0.5-0.3,0.7,0.3
		c0.4,1,0.5,2.1,0.4,3.4C243.7,165.8,243.4,166.4,243.2,166.7z M222.3,144c-1.4,1.1-2.5,2.5-3.3,4.2c-1.8,3.9-2.8,7.1-2.8,9.7
		c0,1.8,0.6,2.4,1.7,1.6c3.9-2.4,6.8-5.4,8.8-8.8c1.3-2.1,1.9-3.9,1.9-5.3c0-2-0.8-2.9-2.5-2.9C225,142.4,223.7,143,222.3,144z"/>
</g>
</svg>
