<?xml version="1.0" encoding="utf-8"?>
<!-- Generator: Adobe Illustrator 22.1.0, SVG Export Plug-In . SVG Version: 6.00 Build 0)  -->
<svg version="1.1" id="Layer_1" xmlns="http://www.w3.org/2000/svg" xmlns:xlink="http://www.w3.org/1999/xlink" x="0px" y="0px"
	 viewBox="0 0 156 147" style="enable-background:new 0 0 156 147;" xml:space="preserve">
<style type="text/css">
	.st0{fill:#BE1E2D;}
	.st1{fill:#F1F2F2;}
</style>
<path class="st0" d="M116.7,124.5H36c-6.6,0-12-5.4-12-12V31.9c0-6.6,5.4-12,12-12h80.6c6.6,0,12,5.4,12,12v80.6
	C128.7,119.1,123.3,124.5,116.7,124.5z"/>
<path class="st1" d="M55.5,87.6l-0.1,0c-16.8-0.1-18.1-17.9-18.1-18.1l0-0.1l2.7-30.8c0.1-0.8,0.8-1.4,1.6-1.3
	c0.8,0.1,1.4,0.8,1.3,1.6l-2.7,30.5c0.1,1.4,1.6,15.2,15.3,15.3c13.7,0,15.2-13.8,15.3-15.3L68,38.9c-0.1-0.8,0.5-1.5,1.3-1.6
	c0.8-0.1,1.5,0.5,1.6,1.3l2.7,30.8l0,0.1C73.6,69.7,72.2,87.5,55.5,87.6L55.5,87.6z"/>
<path class="st1" d="M48.1,74c-0.8,0-1.4-0.6-1.4-1.4V38.8c0-0.8,0.6-1.4,1.4-1.4c0.8,0,1.4,0.6,1.4,1.4v33.8
	C49.6,73.3,48.9,74,48.1,74z"/>
<path class="st1" d="M55.5,74c-0.8,0-1.4-0.6-1.4-1.4V38.8c0-0.8,0.6-1.4,1.4-1.4c0.8,0,1.4,0.6,1.4,1.4v33.8
	C56.9,73.3,56.3,74,55.5,74z"/>
<path class="st1" d="M55.5,107.9c-0.8,0-1.4-0.6-1.4-1.4V86.4c0-0.8,0.6-1.4,1.4-1.4c0.8,0,1.4,0.6,1.4,1.4v20.1
	C56.9,107.3,56.3,107.9,55.5,107.9z"/>
<path class="st1" d="M97.6,107.9c-0.8,0-1.4-0.6-1.4-1.4V86.4c0-0.8,0.6-1.4,1.4-1.4s1.4,0.6,1.4,1.4v20.1
	C99,107.3,98.3,107.9,97.6,107.9z"/>
<path class="st1" d="M62.8,74c-0.8,0-1.4-0.6-1.4-1.4V38.8c0-0.8,0.6-1.4,1.4-1.4c0.8,0,1.4,0.6,1.4,1.4v33.8
	C64.2,73.3,63.6,74,62.8,74z"/>
<path class="st1" d="M97.6,87.8c-9.6,0-20-4.9-20-18.7c0-13.9,9.6-31.7,19.8-31.7c4.9,0,9.5,3.8,13.2,10.7c3.2,6,5.1,13.6,5.1,20.2
	C115.7,80.5,108.9,87.8,97.6,87.8z M97.4,40.2c-3.7,0-8,3.6-11.4,9.6c-3.4,5.9-5.5,13.3-5.5,19.2c0,4.8,1.7,15.9,17.1,15.9
	c5.7,0,15.2-2.2,15.2-16.7C112.8,55.9,105.5,40.2,97.4,40.2z"/>
</svg>
